<?xml version="1.0" encoding="UTF-8" standalone="no"?>
<!DOCTYPE svg PUBLIC "-//W3C//DTD SVG 1.1//EN" "http://www.w3.org/Graphics/SVG/1.1/DTD/svg11.dtd">
<svg width="100%" height="100%" viewBox="0 0 1621 1621" version="1.1" xmlns="http://www.w3.org/2000/svg" xmlns:xlink="http://www.w3.org/1999/xlink" xml:space="preserve" xmlns:serif="http://www.serif.com/" style="fill-rule:evenodd;clip-rule:evenodd;stroke-linejoin:round;stroke-miterlimit:1.41421;">
    <g transform="matrix(5.55556,0,0,5.55556,0,0)">
        <g>
            <path d="M273.494,199.104L255.252,199.104L255.252,125.545L273.494,125.545C283.583,125.545 291.755,133.705 291.755,143.79L291.755,181.407C291.755,191.467 283.589,199.104 273.494,199.104Z" style="fill:rgb(25,134,227);fill-rule:nonzero;"/>
            <path d="M255.816,48.324L236.445,48.324L236.445,11.262L255.816,11.262C265.892,11.262 274.058,18.321 274.058,28.4L274.058,31.252C274.065,41.325 265.893,48.324 255.816,48.324Z" style="fill:rgb(25,134,227);fill-rule:nonzero;"/>
            <path d="M256.009,96.365C256.009,106.447 247.842,114.004 237.76,114.004L18.258,114.004C8.173,114.004 0,106.447 0,96.365L0,78.114C0,68.044 8.173,59.865 18.258,59.865L237.76,59.865C247.842,59.865 256.009,68.044 256.009,78.114L256.009,96.365Z" style="fill:rgb(25,134,227);fill-rule:nonzero;"/>
            <path d="M78.197,11.262L224.903,11.262L224.903,48.324L78.197,48.324L78.197,11.262Z" style="fill:rgb(25,134,227);fill-rule:nonzero;"/>
            <path d="M30.91,31.252L30.91,28.4C30.91,18.315 39.082,11.262 49.168,11.262L66.852,11.262L66.852,48.324L49.167,48.324C39.082,48.324 30.91,41.325 30.91,31.252Z" style="fill:rgb(25,134,227);fill-rule:nonzero;"/>
            <path d="M15.465,280.493C10.632,280.493 6.716,272.236 6.716,262.047L6.716,230.215C6.716,220.026 10.632,211.769 15.465,211.769L24.22,211.769L24.22,280.494C24.214,280.493 20.299,280.493 15.465,280.493Z" style="fill:rgb(25,134,227);fill-rule:nonzero;"/>
            <path d="M30.91,181.408L30.91,143.791C30.91,133.706 39.082,126.101 49.168,126.101L67.134,126.101L67.134,199.104L49.167,199.104C39.082,199.104 30.91,191.467 30.91,181.408Z" style="fill:rgb(25,134,227);fill-rule:nonzero;"/>
            <path d="M237.201,280.493L36.5,280.493L36.5,211.769L237.201,211.769L237.201,280.493Z" style="fill:rgb(25,134,227);fill-rule:nonzero;"/>
            <path d="M77.783,125.546L243.435,125.546L243.435,199.104L77.783,199.104L77.783,125.546Z" style="fill:rgb(25,134,227);fill-rule:nonzero;"/>
            <path d="M257.87,280.493L249.308,280.493L249.308,211.768C249.308,211.768 253.138,211.768 257.87,211.768C262.596,211.768 266.427,220.025 266.427,230.214L266.427,262.046C266.433,272.236 262.596,280.493 257.87,280.493Z" style="fill:rgb(25,134,227);fill-rule:nonzero;"/>
        </g>
    </g>
</svg>
